Coordinates
version=1
nRows=54
nColumns=12
inDegrees=yes

Units are S.I. units (second, meters, Newtons, ...)
Angles are in degrees

endheader
time	SC_y	SC_z	SC_x	AC_y	AC_z	AC_x	GH_y	GH_z	GH_yy	EL_x	PS_y
       0.0              -21.36          17.76          47.21           55.2         -18.13         -6.106          37.83          42.69          163.9          114.6          60.84
   0.01773              -21.36          17.76           47.2           55.2         -18.13         -6.105          37.83          42.68          163.9          114.5          60.85
   0.03547              -21.36          17.76           47.2           55.2         -18.13         -6.104          37.83          42.67          163.9          114.5          60.86
    0.0532              -21.36          17.76           47.2           55.2         -18.13         -6.103          37.83          42.66          163.9          114.5          60.88
   0.07093              -21.36          17.76           47.2          55.21         -18.13         -6.102          37.82          42.65          163.8          114.5          60.89
   0.08867              -21.36          17.76           47.2          55.21         -18.13         -6.101          37.82          42.64          163.8          114.5           60.9
    0.1064              -21.36          17.76           47.2          55.21         -18.13           -6.1          37.82          42.63          163.8          114.5          60.91
    0.1241              -21.35          17.77           47.2          55.21         -18.13         -6.098          37.82          42.62          163.8          114.5          60.93
    0.1419              -21.35          17.77           47.2          55.21         -18.13         -6.097          37.82          42.61          163.8          114.5          60.94
    0.1596              -21.35          17.77          47.19          55.21         -18.13         -6.095          37.82           42.6          163.7          114.5          60.96
    0.1773              -21.35          17.77          47.19          55.21         -18.13         -6.094          37.82          42.58          163.7          114.4          60.98
    0.1951              -21.35          17.77          47.19          55.21         -18.13         -6.092          37.82          42.57          163.7          114.4           61.0
    0.2128              -21.34          17.78          47.19          55.21         -18.13          -6.09          37.81          42.55          163.7          114.4          61.02
    0.2305              -21.34          17.78          47.19          55.21         -18.13         -6.088          37.81          42.54          163.6          114.4          61.04
    0.2483              -21.34          17.78          47.19          55.21         -18.13         -6.086          37.81          42.52          163.6          114.4          61.06
     0.266              -21.34          17.78          47.18          55.21         -18.13         -6.083          37.81           42.5          163.6          114.4          61.09
    0.2837              -21.33          17.79          47.18          55.21         -18.13         -6.081          37.81          42.47          163.5          114.3          61.11
    0.3015              -21.33          17.79          47.18          55.22         -18.13         -6.078           37.8          42.45          163.5          114.3          61.15
    0.3192              -21.32          17.79          47.17          55.22         -18.13         -6.075           37.8          42.42          163.4          114.3          61.18
    0.3369              -21.32           17.8          47.17          55.22         -18.13         -6.071           37.8          42.39          163.4          114.2          61.22
    0.3547              -21.32           17.8          47.17          55.22         -18.13         -6.067           37.8          42.36          163.3          114.2          61.26
    0.3724              -21.31          17.81          47.16          55.22         -18.13         -6.063          37.79          42.33          163.3          114.2           61.3
    0.3901               -21.3          17.81          47.16          55.22         -18.13         -6.059          37.79          42.29          163.2          114.1          61.35
    0.4079               -21.3          17.82          47.15          55.23         -18.13         -6.054          37.78          42.25          163.1          114.1           61.4
    0.4256              -21.29          17.82          47.15          55.23         -18.13         -6.048          37.78           42.2          163.0          114.0          61.46
    0.4433              -21.28          17.83          47.14          55.23         -18.13         -6.042          37.77          42.15          162.9          114.0          61.53
    0.4611              -21.28          17.84          47.14          55.23         -18.13         -6.035          37.77          42.09          162.8          113.9           61.6
    0.4788              -21.27          17.85          47.13          55.24         -18.12         -6.027          37.76          42.02          162.7          113.8          61.69
    0.4965              -21.25          17.86          47.12          55.24         -18.12         -6.018          37.75          41.95          162.6          113.8          61.78
    0.5143              -21.24          17.87          47.11          55.24         -18.12         -6.008          37.74          41.86          162.4          113.7          61.89
     0.532              -21.23          17.88           47.1          55.25         -18.12         -5.996          37.74          41.76          162.3          113.6          62.02
    0.5497              -21.21           17.9          47.09          55.25         -18.12         -5.983          37.72          41.65          162.1          113.4          62.16
    0.5675              -21.19          17.91          47.07          55.26         -18.12         -5.967          37.71          41.52          161.8          113.3          62.32
    0.5852              -21.17          17.94          47.05          55.27         -18.12         -5.949           37.7          41.37          161.6          113.1          62.51
    0.6029              -21.14          17.96          47.03          55.28         -18.12         -5.928          37.68          41.19          161.3          113.0          62.73
    0.6207              -21.11          17.99          47.01          55.29         -18.12         -5.904          37.66          40.99          160.9          112.7           63.0
    0.6384              -21.08          18.02          46.98           55.3         -18.12         -5.874          37.63          40.74          160.5          112.5          63.31
    0.6561              -21.03          18.06          46.95          55.31         -18.12         -5.839           37.6          40.45          159.9          112.2          63.68
    0.6739              -20.98          18.11          46.91          55.33         -18.12         -5.797          37.57          40.09          159.3          111.8          64.13
    0.6916              -20.92          18.17          46.86          55.35         -18.12         -5.745          37.52          39.65          158.5          111.3          64.69
    0.7093              -20.84          18.24           46.8          55.38         -18.11         -5.681          37.47          39.11          157.6          110.7          65.37
    0.7271              -20.74          18.33          46.72          55.41         -18.11         -5.601           37.4          38.44          156.4          110.0          66.22
    0.7448              -20.62          18.44          46.62          55.45         -18.11           -5.5          37.32          37.59          154.9          109.1          67.29
    0.7625              -20.46          18.59           46.5          55.51          -18.1         -5.372          37.21          36.52          153.0          108.0          68.65
    0.7803              -20.26          18.77          46.34          55.57          -18.1         -5.208          37.07          35.14          150.5          106.5          70.39
     0.798               -20.0          19.01          46.14          55.66         -18.09         -4.998           36.9          33.38          147.4          104.6          72.62
    0.8157              -19.66          19.32          45.88          55.77         -18.08          -4.73          36.67          31.12          143.4          102.2          75.48
    0.8335              -19.25           19.7          45.56          55.91         -18.07         -4.392          36.39          28.28          138.3          99.15          79.07
    0.8512              -18.74          20.16          45.16          56.08         -18.06         -3.981          36.04          24.82          132.2          95.45          83.45
    0.8689              -18.15           20.7           44.7          56.28         -18.04         -3.504          35.64          20.81          125.1          91.16          88.52
    0.8867              -17.51          21.29          44.21          56.49         -18.02         -2.987          35.21          16.47          117.4          86.52          94.01
    0.9044              -16.88          21.87          43.71           56.7         -18.01         -2.471          34.77          12.13          109.7          81.87           99.5
    0.9221              -16.29          22.41          43.25           56.9         -17.99         -1.994          34.37          8.122          102.6          77.59          104.6
    0.9399              -15.78          22.88          42.85          57.07         -17.98         -1.582          34.03          4.664          96.41          73.89          108.9
